<svg width="20" height="20" viewBox="0 0 20 20" fill="none" xmlns="http://www.w3.org/2000/svg">
<path d="M10 19C5.03875 19 1 14.9613 1 10C1 5.03875 5.03875 1 10 1C14.9613 1 19 5.03875 19 10C19 14.9613 14.9613 19 10 19ZM17.59 11.2315C17.3275 11.149 15.2125 10.5168 12.802 10.903C13.807 13.666 14.2172 15.916 14.296 16.384C16.021 15.2178 17.248 13.369 17.5923 11.2315H17.59ZM13.0037 17.0875C12.889 16.4125 12.4412 14.0635 11.3612 11.26L11.3118 11.275C6.96925 12.7862 5.41675 15.7938 5.28175 16.075C6.57925 17.0935 8.22175 17.6995 9.99925 17.6995C11.0643 17.6995 12.0768 17.482 12.9993 17.089L13.0037 17.0875ZM4.28875 15.1525C4.46275 14.8525 6.5725 11.3612 10.5378 10.0787C10.639 10.045 10.7403 10.0158 10.8415 9.98875C10.6465 9.55 10.4365 9.1135 10.2175 8.68375C6.3775 9.83125 2.6545 9.7825 2.317 9.775L2.314 10.009C2.314 11.9837 3.0625 13.7868 4.2895 15.1503L4.28875 15.1525ZM2.47375 8.43625C2.81875 8.44225 5.986 8.45575 9.5815 7.50025C8.308 5.23675 6.934 3.33175 6.7315 3.05425C4.5805 4.06675 2.974 6.04675 2.4745 8.43175L2.47375 8.43625ZM8.2 2.539C8.4115 2.824 9.80875 4.7245 11.0665 7.039C13.8003 6.01525 14.959 4.459 15.0962 4.2625C13.7387 3.055 11.9537 2.323 10 2.323C9.38125 2.323 8.7775 2.398 8.2 2.53675V2.539ZM15.9513 5.15125C15.7878 5.36875 14.5 7.021 11.6582 8.18125C11.8383 8.54875 12.0107 8.92 12.1683 9.29575C12.2283 9.43075 12.2808 9.56575 12.3333 9.69325C14.8907 9.37075 17.4333 9.88825 17.6882 9.94075C17.6733 8.12575 17.0282 6.46075 15.9558 5.15575L15.9513 5.15125Z" fill="black"/>
</svg>
