<svg width="64" height="58" viewBox="0 0 64 58" fill="none" xmlns="http://www.w3.org/2000/svg">
<path fill-rule="evenodd" clip-rule="evenodd" d="M0.758204 19.9709L13.5846 2.56368C13.8494 2.2043 14.2523 1.97188 14.696 1.92259L31.8233 0.0195516C31.9407 0.00650362 32.0593 0.00650362 32.1767 0.0195516L49.304 1.92259C49.7477 1.97188 50.1506 2.2043 50.4154 2.56368L63.2418 19.9709C63.6852 20.5727 63.6529 21.4013 63.1639 21.9667L32.9076 56.9505C32.4741 57.4517 31.7163 57.5067 31.215 57.0731C31.1712 57.0352 31.1302 56.9943 31.0924 56.9505L0.836112 21.9667C0.347135 21.4013 0.314789 20.5727 0.758204 19.9709ZM35.6463 3.74747L48.471 16.9285C48.7792 17.2452 49.2856 17.2521 49.6023 16.944C49.7715 16.7794 49.8593 16.5485 49.8424 16.3131L49.1849 7.19308C49.173 7.02782 49.2973 6.8842 49.4626 6.87228C49.608 6.8618 49.7398 6.95734 49.7752 7.09876L52.2287 16.9146C52.3973 17.589 52.9039 18.1275 53.5668 18.3368L60.1441 20.4138C60.3021 20.4637 60.3897 20.6323 60.3398 20.7903C60.3004 20.9151 60.1846 20.9999 60.0537 20.9999H53.6464C52.9363 20.9999 52.2795 21.3764 51.9206 21.9891L36.9962 47.4698C36.8566 47.7081 36.5503 47.7881 36.3121 47.6485C36.0906 47.5188 36.0033 47.2426 36.11 47.0092L47.2233 22.6988C47.4989 22.0961 47.2336 21.3841 46.6309 21.1086C46.4743 21.037 46.3041 20.9999 46.132 20.9999H17.868C17.2053 20.9999 16.668 21.5372 16.668 22.1999C16.668 22.3721 16.7051 22.5422 16.7766 22.6988L27.89 47.0092C28.0048 47.2604 27.8942 47.557 27.6431 47.6718C27.4097 47.7785 27.1335 47.6912 27.0038 47.4698L12.0794 21.9891C11.7205 21.3764 11.0637 20.9999 10.3536 20.9999H3.7619C3.59622 20.9999 3.4619 20.8656 3.4619 20.6999C3.4619 20.5683 3.54771 20.452 3.67351 20.4132L10.4219 18.3324C11.0911 18.126 11.6036 17.5847 11.7731 16.9053L14.2197 7.09894C14.2598 6.93819 14.4227 6.84038 14.5834 6.88049C14.7249 6.91577 14.8205 7.04761 14.81 7.193L14.1566 16.3145C14.125 16.7552 14.4566 17.1381 14.8973 17.1696C15.1326 17.1865 15.3634 17.0987 15.5279 16.9296L28.3537 3.74747C28.4693 3.62872 28.6592 3.62612 28.778 3.74166C28.8872 3.84794 28.8994 4.01924 28.8063 4.13992L19.4941 16.2113C19.2242 16.5611 19.289 17.0635 19.6389 17.3333C19.7789 17.4413 19.9507 17.4999 20.1275 17.4999H43.8725C44.3143 17.4999 44.6725 17.1417 44.6725 16.6999C44.6725 16.5231 44.6139 16.3513 44.5059 16.2113L35.1937 4.13992C35.0925 4.00873 35.1168 3.82034 35.248 3.71914C35.3687 3.62605 35.54 3.63823 35.6463 3.74747Z" fill="black"/>
</svg>
